# xmcd CD database file
#
# Track frame offsets:
#	150
#	17392
#	44165
#	64875
#	87987
#	105762
#	125225
#	151465
#
# Disc length: 2264 seconds
#
# Revision: 2
# Processed by: cddbd v1.5PL3 Copyright (c) Steve Scherf et al.
# Submitted via: CDex 1.51
#
DISCID=6408d608
DTITLE=Anthem - Hunting Time
DYEAR=1900
DGENRE=Heavy Metal
TTITLE0=The Juggler
TTITLE1=Hunting Time
TTITLE2=Evil Touch
TTITLE3=Tears For The Lovers
TTITLE4=Sleepless Night
TTITLE5=Jail Break (Goin' For Broke)
TTITLE6=Let Your Heart Beat
TTITLE7=Bottle Bottom
EXTD=
EXTT0=
EXTT1=
EXTT2=
EXTT3=
EXTT4=
EXTT5=
EXTT6=
EXTT7=
PLAYORDER=
